<svg xmlns="http://www.w3.org/2000/svg" viewBox="0 0 1400 980">
  <defs>
    <linearGradient id="bg" x1="0" x2="1" y1="0" y2="1">
      <stop offset="0%" stop-color="#edf3f7"/>
      <stop offset="55%" stop-color="#f5f9fb"/>
      <stop offset="100%" stop-color="#dfe7ec"/>
    </linearGradient>
    <linearGradient id="desk" x1="0" x2="0" y1="0" y2="1">
      <stop offset="0%" stop-color="#ffffff"/>
      <stop offset="100%" stop-color="#eef3f6"/>
    </linearGradient>
    <linearGradient id="skin" x1="0" x2="1" y1="0" y2="1">
      <stop offset="0%" stop-color="#efd5cb"/>
      <stop offset="100%" stop-color="#d8b0a7"/>
    </linearGradient>
    <filter id="blurSoft">
      <feGaussianBlur stdDeviation="10"/>
    </filter>
    <filter id="blurHeavy">
      <feGaussianBlur stdDeviation="18"/>
    </filter>
  </defs>

  <rect width="1400" height="980" fill="url(#bg)"/>
  <rect width="370" height="980" fill="#bbb7b6" opacity=".75"/>
  <rect x="0" y="740" width="1400" height="240" fill="#cfae90" opacity=".42"/>

  <g opacity=".55" filter="url(#blurHeavy)">
    <ellipse cx="1070" cy="170" rx="310" ry="240" fill="#ffffff"/>
    <ellipse cx="860" cy="10" rx="180" ry="120" fill="#ffffff"/>
    <ellipse cx="1120" cy="290" rx="220" ry="180" fill="#ffffff"/>
    <ellipse cx="690" cy="255" rx="100" ry="170" fill="#ffffff"/>
    <ellipse cx="225" cy="660" rx="180" ry="135" fill="#d0dae2"/>
  </g>

  <g opacity=".92">
    <rect x="132" y="345" width="510" height="420" rx="22" fill="url(#desk)"/>
    <rect x="410" y="505" width="420" height="245" rx="20" fill="url(#desk)"/>
    <rect x="524" y="474" width="235" height="18" rx="9" fill="#bcc8d1"/>
    <rect x="346" y="610" width="68" height="152" rx="14" transform="rotate(35 380 686)" fill="#8f9499" opacity=".7"/>
    <rect x="634" y="792" width="92" height="28" rx="10" fill="#6f645c" opacity=".55"/>
  </g>

  <g fill="none" stroke="#474c52" stroke-linecap="round" stroke-width="10" opacity=".72">
    <ellipse cx="150" cy="285" rx="70" ry="46"/>
    <ellipse cx="285" cy="285" rx="70" ry="46"/>
    <line x1="220" y1="285" x2="215" y2="285"/>
    <line x1="355" y1="250" x2="400" y2="210"/>
  </g>

  <g opacity=".88">
    <path d="M918 0c58 86 54 152 9 210-34 43-27 103 11 166 27 45 44 98 44 153v77h-147V467c0-77 22-156 68-218 50-69 54-165 15-249Z" fill="#ffffff"/>
    <path d="M1080 0c71 69 112 154 105 265l-9 153 153 169-86 78-206-223c-28-31-41-73-35-115l26-183c7-51-1-109-28-164Z" fill="#ffffff"/>
    <path d="M1027 361c41 11 71 49 73 93l6 144H953l11-123c4-44 29-84 63-114Z" fill="#e9eef3"/>
    <circle cx="1178" cy="221" r="60" fill="none" stroke="#b8c0c9" stroke-width="12"/>
    <path d="M1178 281v80" fill="none" stroke="#b8c0c9" stroke-linecap="round" stroke-width="12"/>
  </g>

  <g opacity=".92">
    <path d="M970 598c48-15 95-13 138 8l67 33c25 12 54 8 76-10l100-83 34 43-107 89c-41 34-97 42-146 20l-64-29-44 87-120-60 66-98Z" fill="url(#skin)"/>
    <rect x="1010" y="555" width="172" height="110" rx="20" transform="rotate(22 1096 610)" fill="#525761"/>
    <rect x="1028" y="572" width="136" height="74" rx="12" transform="rotate(22 1096 610)" fill="#8f97a4"/>
  </g>

  <g opacity=".95">
    <path d="M0 754c84-43 178-41 258 4 33 19 76 21 111 7l82-33 39 97-98 40c-55 23-119 19-171-10l-129-72c-43-24-82-21-92-33Z" fill="#d2a99c"/>
    <path d="M0 698c84 10 156 46 215 112l-59 90L0 789V698Z" fill="#59514c" opacity=".92"/>
    <path d="M186 699c65 21 118 61 160 121l-80 61-143-79 63-103Z" fill="#efdbd1"/>
  </g>

  <g opacity=".16" filter="url(#blurSoft)">
    <rect x="0" y="0" width="1400" height="980" fill="#ffffff"/>
  </g>
</svg>
